HIERARCHY
ROOT Hips
{
	OFFSET 0.000000 0.000000 0.000000 
	CHANNELS 6 Xposition Yposition Zposition Yrotation Zrotation Xrotation 
	JOINT Lumbar
	{
		OFFSET 0.000000 0.000000 0.000000 
		CHANNELS 3 Zrotation Xrotation Yrotation
		JOINT Neck
		{
			OFFSET 0.000000 0.445665 0.000000 
			CHANNELS 3 Zrotation Xrotation Yrotation
			End Site
			{
				OFFSET 0.000000 0.227535 0.000000 
			}
		}
		JOINT RightShoulder
		{
			OFFSET 0.019635 0.377685 0.194865 
			CHANNELS 3 Zrotation Xrotation Yrotation
			JOINT RightElbow
			{
				OFFSET 0.000000 -0.243375 0.000000 
				CHANNELS 2 Zrotation Yrotation
				JOINT RightWrist
				{
					OFFSET 0.000000 -0.264825 0.000000 
					CHANNELS 2 Zrotation Xrotation
					End Site
					{
						OFFSET 0.006600 -0.176220 0.000990 
					}
				}
			}
		}
		JOINT LeftShoulder
		{
			OFFSET 0.019635 0.377685 -0.194865 
			CHANNELS 3 Zrotation Xrotation Yrotation
			JOINT LeftElbow
			{
				OFFSET 0.000000 -0.243375 0.000000 
				CHANNELS 2 Zrotation Yrotation
				JOINT LeftWrist
				{
					OFFSET 0.000000 -0.264825 0.000000 
					CHANNELS 2 Zrotation Xrotation
					End Site
					{
						OFFSET 0.006600 -0.176220 -0.000990 
					}
				}
			}
		}
	}
	JOINT RightHip
	{
		OFFSET 0.052140 -0.069960 0.075570 
		CHANNELS 3 Zrotation Xrotation Yrotation
		JOINT RightKnee
		{
			OFFSET 0.000000 -0.402270 0.000000 
			CHANNELS 1 Zrotation
			JOINT RightAnkle
			{
				OFFSET 0.000000 -0.404085 0.000000 
				CHANNELS 3 Zrotation Xrotation Yrotation
				End Site
				{
					OFFSET 0.204105 -0.089430 0.008415 
				}
			}
		}
	}
	JOINT LeftHip
	{
		OFFSET 0.052140 -0.069960 -0.075570 
		CHANNELS 3 Zrotation Xrotation Yrotation
		JOINT LeftKnee
		{
			OFFSET 0.000000 -0.402270 0.000000 
			CHANNELS 1 Zrotation
			JOINT LeftAnkle
			{
				OFFSET 0.000000 -0.404085 0.000000 
				CHANNELS 3 Zrotation Xrotation Yrotation
				End Site
				{
					OFFSET 0.204105 -0.089430 -0.008415 
				}
			}
		}
	}
}
MOTION
Frames: 17
Frame Time: 0.02
-0 0.95578 -0 181.69877 0 -3.7004 1.44719 2.61379 -2.0723 -23.26307 3.71421 0.77264 -22.81089 -70.25997 -78.39759 26.12552 78.57499 -19.51765 -3.18582 -21.77158 72.81822 79.96288 23.61634 -71.30926 -33.74854 2.53784 -2.6071 2.44788 4.63783 -7.13717 -2.27055 -3.52403 -6.38256 -1.55862 4.70014 1.30023 -8.08248 6.1087 4.53819 4.86581
5e-05 0.95578 0 181.72556 0 -3.69771 1.45373 2.61361 -2.08525 -23.26389 3.72684 0.7646 -22.81756 -70.27543 -78.41418 26.12198 78.56756 -19.53514 -3.17615 -21.6745 72.78751 79.85257 23.60336 -71.28939 -33.74028 2.54149 -2.59876 2.44729 4.63065 -7.1589 -2.2618 -3.53873 -6.39522 -1.53744 4.69883 1.27699 -8.11034 6.11391 4.54095 4.85644
9e-05 0.95577 1e-05 181.75215 0 -3.69506 1.46011 2.61354 -2.09808 -23.26455 3.7394 0.75668 -22.82427 -70.29085 -78.43064 26.11854 78.56006 -19.55248 -3.16654 -21.57795 72.75683 79.74294 23.59055 -71.26993 -33.73186 2.54512 -2.59038 2.4467 4.62342 -7.18056 -2.25311 -3.55334 -6.40769 -1.51635 4.69752 1.25398 -8.138 6.11912 4.54368 4.8471
0.00014 0.95576 1e-05 181.77811 0 -3.69253 1.46602 2.61386 -2.11046 -23.26442 3.75155 0.74912 -22.83139 -70.30598 -78.44702 26.11548 78.5518 -19.56947 -3.15699 -21.48312 72.72638 79.63502 23.57821 -71.25169 -33.72314 2.54862 -2.5818 2.44607 4.61641 -7.20211 -2.24465 -3.56772 -6.41985 -1.49553 4.6962 1.23167 -8.1651 6.12432 4.54636 4.83791
0.00018 0.95575 1e-05 181.80734 0 -3.6894 1.47453 2.61207 -2.12514 -23.26828 3.7656 0.73964 -22.83654 -70.32235 -78.46416 26.11046 78.54712 -19.58841 -3.14699 -21.37983 72.69519 79.51813 23.56326 -71.22673 -33.71653 2.55274 -2.57435 2.44562 4.60882 -7.22419 -2.23504 -3.58333 -6.43406 -1.47339 4.69491 1.20568 -8.19512 6.1295 4.54937 4.82803
0.00024 0.95575 2e-05 181.82967 0 -3.68752 1.47744 2.61474 -2.135 -23.26381 3.77581 0.73425 -22.84573 -70.33628 -78.47946 26.10955 78.53518 -19.60316 -3.13803 -21.29408 72.66527 79.42026 23.55392 -71.21616 -33.7051 2.55556 -2.56448 2.44478 4.60208 -7.24515 -2.22785 -3.59629 -6.44363 -1.454 4.69356 1.18751 -8.21898 6.13475 4.55165 4.81954
0.00038 0.95575 0.0001 181.8323 0 -3.68922 1.46513 2.63039 -2.13062 -23.23442 3.7736 0.7403 -22.86762 -70.34191 -78.49152 26.12059 78.49934 -19.60658 -3.13135 -21.26013 72.64086 79.37466 23.55987 -71.24519 -33.68281 2.55466 -2.5476 2.44291 4.60085 -7.26347 -2.22765 -3.60235 -6.44263 -1.44257 4.69191 1.19095 -8.2253 6.14005 4.55204 4.81549
0.00054 0.95576 0.00019 181.82806 0 -3.69216 1.44709 2.65043 -2.12151 -23.19698 3.76783 0.75046 -22.89326 -70.34538 -78.50138 26.1357 78.45683 -19.60572 -3.12583 -21.24329 72.61732 79.34821 23.57157 -71.28878 -33.65531 2.55246 -2.52833 2.44063 4.60001 -7.2806 -2.22987 -3.60569 -6.43661 -1.43384 4.69021 1.20227 -8.22549 6.14543 4.55167 4.81276
0.0007 0.95577 0.00027 181.8274 0 -3.69445 1.43148 2.66805 -2.11515 -23.16439 3.76486 0.75867 -22.91624 -70.35088 -78.51105 26.14859 78.41984 -19.60668 -3.12021 -21.21634 72.59205 79.31318 23.58074 -71.32589 -33.62845 2.55093 -2.51033 2.43849 4.59673 -7.29805 -2.23078 -3.61003 -6.43129 -1.4236 4.68859 1.20999 -8.22887 6.15089 4.55155 4.80896
0.00085 0.95577 0.00036 181.82491 0 -3.69711 1.41664 2.68748 -2.10631 -23.12664 3.75691 0.76726 -22.94346 -70.352 -78.52575 26.16304 78.37237 -19.60821 -3.11282 -21.19901 72.57243 79.27788 23.58943 -71.36252 -33.60841 2.54904 -2.49151 2.43651 4.60244 -7.31651 -2.23247 -3.61533 -6.43224 -1.41452 4.6867 1.21783 -8.23061 6.15592 4.55179 4.80699
0.00101 0.95578 0.00043 181.82446 0 -3.69931 1.39881 2.70416 -2.10146 -23.0979 3.75845 0.77603 -22.9625 -70.36168 -78.52945 26.17522 78.3451 -19.60748 -3.10937 -21.16601 72.54124 79.24742 23.60064 -71.40345 -33.5735 2.54762 -2.47387 2.43416 4.59023 -7.3325 -2.23322 -3.61803 -6.41946 -1.40373 4.68538 1.22723 -8.23424 6.16175 4.55115 4.80171
0.00118 0.95579 0.00046 181.83268 0 -3.69978 1.37425 2.71227 -2.10937 -23.09454 3.78744 0.78415 -22.95976 -70.39577 -78.503 26.17991 78.37568 -19.60183 -3.11664 -21.08264 72.47785 79.22791 23.61598 -71.45426 -33.49361 2.54773 -2.45976 2.43049 4.5222 -7.34271 -2.22996 -3.61396 -6.36535 -1.38694 4.68553 1.23963 -8.24513 6.17079 4.54797 4.78527
0.00135 0.9558 0.00047 181.84298 0 -3.69977 1.34688 2.71742 -2.12137 -23.10083 3.82604 0.79232 -22.9482 -70.43845 -78.46554 26.18225 78.42669 -19.59399 -3.12779 -20.98329 72.40281 79.21217 23.63393 -71.50861 -33.39977 2.54838 -2.44699 2.42655 4.43719 -7.35033 -2.22579 -3.60743 -6.29841 -1.36845 4.68627 1.25319 -8.25804 6.18044 4.54399 4.76576
0.00153 0.9558 0.00048 181.85141 0 -3.70008 1.3207 2.72388 -2.13111 -23.10361 3.86002 0.80061 -22.9397 -70.47712 -78.43337 26.18578 78.46809 -19.58697 -3.13707 -20.89337 72.33314 79.19326 23.65158 -71.56031 -33.31589 2.54885 -2.43379 2.42301 4.36419 -7.35864 -2.22259 -3.6022 -6.24045 -1.35115 4.68679 1.26583 -8.26968 6.18912 4.54055 4.74881
0.0017 0.95581 0.0005 181.86336 0 -3.70003 1.29461 2.73073 -2.14233 -23.10228 3.89495 0.80853 -22.93587 -70.51642 -78.40013 26.18883 78.5108 -19.58053 -3.14689 -20.79556 72.26318 79.18125 23.66563 -71.61687 -33.21708 2.54902 -2.41967 2.41831 4.2735 -7.36899 -2.21722 -3.59608 -6.16923 -1.33218 4.68712 1.28048 -8.2826 6.20068 4.53633 4.72706
0.00187 0.95582 0.00051 181.86876 0 -3.70057 1.26782 2.73591 -2.15156 -23.11208 3.93019 0.81706 -22.91952 -70.55617 -78.36627 26.19239 78.55553 -19.5724 -3.15646 -20.70931 72.19107 79.15541 23.6878 -71.66402 -33.14544 2.54994 -2.4079 2.41593 4.2151 -7.37449 -2.21602 -3.59128 -6.12238 -1.31625 4.68797 1.29101 -8.29338 6.20646 4.53356 4.71446
0.002 0.95582 0.00049 181.85381 0 -3.70321 1.23925 2.738 -2.15371 -23.14868 3.96436 0.82817 -22.87622 -70.59752 -78.33573 26.19695 78.60284 -19.56044 -3.16448 -20.66649 72.11543 79.09147 23.73132 -71.68372 -33.15834 2.55292 -2.40175 2.42032 4.25438 -7.36732 -2.22742 -3.5906 -6.1485 -1.30903 4.69019 1.2907 -8.29806 6.19557 4.53508 4.72877
